<svg width="27" height="24" viewBox="0 0 27 24" fill="none" xmlns="http://www.w3.org/2000/svg">
<g clip-path="url(#clip0_2_310)">
<path d="M0.548584 24H9.60019C13.8923 24 17.3718 20.8721 17.3718 17.0137H8.32017C4.02804 17.0137 0.548584 20.1416 0.548584 24Z" fill="#F22BB2"/>
<path d="M0.953491 6.9863V17.2603C5.24562 17.2603 8.72507 14.1324 8.72507 10.274V0C4.43295 0 0.953491 3.12787 0.953491 6.9863Z" fill="#8C30F5"/>
<path d="M26.1491 16.6027V6.32877C21.857 6.32877 18.3775 9.45664 18.3775 13.3151V23.589C22.6696 23.589 26.1491 20.4612 26.1491 16.6027Z" fill="#2EC5CE"/>
<path d="M26.1491 0H17.0975C12.8054 0 9.3259 3.12787 9.3259 6.9863H18.3775C22.6696 6.9863 26.1491 3.85843 26.1491 0Z" fill="#FE9A22"/>
</g>
<defs>
<clipPath id="clip0_2_310">
<rect width="26.6977" height="24" fill="white"/>
</clipPath>
</defs>
</svg>
