<svg width="184" height="34" viewBox="0 0 184 34" fill="none" xmlns="http://www.w3.org/2000/svg">
<g clip-path="url(#clip0_2_347)">
<path opacity="0.1" fill-rule="evenodd" clip-rule="evenodd" d="M0 17C0 7.61116 7.61116 0 17 0C26.3888 0 34 7.61116 34 17C34 26.3888 26.3888 34 17 34C7.61116 34 0 26.3888 0 17Z" fill="white"/>
<path fill-rule="evenodd" clip-rule="evenodd" d="M17.0009 7.93335C14.5385 7.93335 14.2295 7.94412 13.2623 7.98813C12.2971 8.03233 11.6383 8.18514 11.0618 8.40935C10.4654 8.64093 9.95958 8.95072 9.45562 9.45487C8.95128 9.95883 8.6415 10.4647 8.40917 11.0608C8.18439 11.6375 8.03138 12.2965 7.98794 13.2614C7.94468 14.2285 7.93335 14.5377 7.93335 17.0001C7.93335 19.4625 7.94431 19.7706 7.98813 20.7377C8.03252 21.7029 8.18533 22.3618 8.40935 22.9383C8.64112 23.5346 8.9509 24.0405 9.45505 24.5444C9.95883 25.0488 10.4647 25.3593 11.0606 25.5909C11.6375 25.8151 12.2965 25.9679 13.2616 26.0121C14.2287 26.0561 14.5375 26.0669 16.9997 26.0669C19.4623 26.0669 19.7704 26.0561 20.7375 26.0121C21.7027 25.9679 22.3623 25.8151 22.9392 25.5909C23.5354 25.3593 24.0405 25.0488 24.5442 24.5444C25.0486 24.0405 25.3583 23.5346 25.5907 22.9385C25.8136 22.3618 25.9666 21.7027 26.0119 20.7379C26.0554 19.7708 26.0667 19.4625 26.0667 17.0001C26.0667 14.5377 26.0554 14.2287 26.0119 13.2616C25.9666 12.2964 25.8136 11.6375 25.5907 11.061C25.3583 10.4647 25.0486 9.95883 24.5442 9.45487C24.0399 8.95053 23.5355 8.64075 22.9387 8.40935C22.3606 8.18514 21.7014 8.03233 20.7362 7.98813C19.7691 7.94412 19.4612 7.93335 16.998 7.93335H17.0009ZM16.1875 9.56723C16.4289 9.56685 16.6982 9.56723 17.0008 9.56723C19.4217 9.56723 19.7086 9.57592 20.6646 9.61936C21.5486 9.65979 22.0283 9.8075 22.3479 9.9316C22.7711 10.0959 23.0727 10.2924 23.3899 10.6097C23.7072 10.9271 23.9037 11.2293 24.0684 11.6524C24.1925 11.9716 24.3404 12.4514 24.3806 13.3354C24.424 14.2912 24.4335 14.5783 24.4335 16.998C24.4335 19.4177 24.424 19.7048 24.3806 20.6606C24.3402 21.5446 24.1925 22.0244 24.0684 22.3436C23.904 22.7667 23.7072 23.068 23.3899 23.3852C23.0725 23.7025 22.7713 23.8989 22.3479 24.0633C22.0287 24.188 21.5486 24.3353 20.6646 24.3757C19.7088 24.4192 19.4217 24.4286 17.0008 24.4286C14.5798 24.4286 14.2929 24.4192 13.3371 24.3757C12.4531 24.3349 11.9733 24.1872 11.6535 24.0631C11.2304 23.8988 10.9282 23.7023 10.6108 23.385C10.2935 23.0676 10.0971 22.7662 9.93234 22.3429C9.80824 22.0236 9.66034 21.5439 9.62011 20.6598C9.57666 19.7041 9.56797 19.4169 9.56797 16.9957C9.56797 14.5745 9.57666 14.2889 9.62011 13.3331C9.66053 12.4491 9.80824 11.9694 9.93234 11.6498C10.0967 11.2266 10.2935 10.9244 10.6108 10.6071C10.9282 10.2897 11.2304 10.0933 11.6535 9.92858C11.9731 9.80391 12.4531 9.65658 13.3371 9.61596C14.1735 9.57819 14.4976 9.56685 16.1875 9.56496V9.56723ZM21.8406 11.0727C21.2399 11.0727 20.7526 11.5595 20.7526 12.1603C20.7526 12.761 21.2399 13.2483 21.8406 13.2483C22.4413 13.2483 22.9286 12.761 22.9286 12.1603C22.9286 11.5597 22.4413 11.0727 21.8406 11.0727ZM17.0009 12.3439C14.4295 12.3439 12.3447 14.4287 12.3447 17.0001C12.3447 19.5715 14.4295 21.6553 17.0009 21.6553C19.5723 21.6553 21.6563 19.5715 21.6563 17.0001C21.6563 14.4287 19.5723 12.3439 17.0009 12.3439ZM17.0008 13.9778C18.6699 13.9778 20.0231 15.3309 20.0231 17.0001C20.0231 18.6691 18.6699 20.0223 17.0008 20.0223C15.3316 20.0223 13.9786 18.6691 13.9786 17.0001C13.9786 15.3309 15.3316 13.9778 17.0008 13.9778Z" fill="white"/>
<path opacity="0.1" fill-rule="evenodd" clip-rule="evenodd" d="M50 17C50 7.61116 57.6112 0 67 0C76.3888 0 84 7.61116 84 17C84 26.3888 76.3888 34 67 34C57.6112 34 50 26.3888 50 17Z" fill="white"/>
<path fill-rule="evenodd" clip-rule="evenodd" d="M76.0667 16.9874C76.0667 17.6006 76.0043 18.2129 75.8816 18.8098C75.7621 19.3925 75.585 19.9645 75.353 20.5114C75.1264 21.0486 74.8452 21.5662 74.5167 22.049C74.1931 22.5287 73.8203 22.9787 73.4108 23.389C73.0004 23.7974 72.5488 24.1692 72.0693 24.4942C71.585 24.8204 71.0666 25.1012 70.5291 25.3289C69.9814 25.5596 69.408 25.7365 68.8258 25.8558C68.2282 25.9788 67.6137 26.0415 66.9996 26.0415C66.3851 26.0415 65.7706 25.9788 65.1738 25.8558C64.5907 25.7365 64.0174 25.5596 63.4702 25.3289C62.9327 25.1012 62.4138 24.8204 61.9295 24.4942C61.45 24.1693 60.9984 23.7974 60.5889 23.389C60.1789 22.9787 59.8061 22.5287 59.482 22.049C59.1553 21.5662 58.8737 21.0485 58.6462 20.5114C58.4141 19.9645 58.2366 19.3924 58.1166 18.8098C57.9953 18.2129 57.9333 17.6006 57.9333 16.9874C57.9333 16.3738 57.9953 15.7602 58.1167 15.1647C58.2367 14.582 58.4142 14.009 58.6462 13.4631C58.8737 12.9255 59.1553 12.4074 59.4821 11.9246C59.8062 11.4445 60.1789 10.9953 60.5889 10.5846C60.9984 10.1761 61.45 9.80518 61.9295 9.48069C62.4138 9.15308 62.9327 8.87239 63.4702 8.64424C64.0174 8.41298 64.5907 8.23573 65.1738 8.11727C65.7706 7.99526 66.3851 7.93335 66.9996 7.93335C67.6137 7.93335 68.2282 7.99526 68.8259 8.11727C69.4081 8.23577 69.9814 8.41302 70.5291 8.64424C71.0666 8.87235 71.585 9.15308 72.0693 9.48069C72.5488 9.80518 73.0004 10.1761 73.4108 10.5846C73.8203 10.9953 74.1931 11.4445 74.5168 11.9246C74.8452 12.4074 75.1264 12.9255 75.353 13.4631C75.585 14.009 75.7621 14.582 75.8816 15.1647C76.0043 15.7602 76.0667 16.3738 76.0667 16.9874ZM63.6959 9.99394C61.5367 11.0121 59.9251 12.9989 59.4226 15.3932C59.6268 15.395 62.8534 15.4357 66.571 14.4494C65.2309 12.0718 63.7991 10.1315 63.6959 9.99394ZM67.2125 15.64C63.2257 16.8318 59.4001 16.746 59.2628 16.7408C59.2606 16.8239 59.2566 16.9043 59.2566 16.9874C59.2566 18.9737 60.007 20.7845 61.2405 22.1537C61.2378 22.1497 63.3568 18.3959 67.5353 17.0467C67.6362 17.0131 67.7389 16.983 67.8407 16.9538C67.6464 16.5144 67.4343 16.0741 67.2125 15.64ZM72.1131 11.1845C70.7499 9.9842 68.96 9.25612 66.9996 9.25612C66.3705 9.25612 65.7599 9.33217 65.1751 9.47275C65.2911 9.62838 66.7455 11.555 68.0696 13.9829C70.9913 12.8892 72.0941 11.2128 72.1131 11.1845ZM68.3685 18.235C68.3513 18.2407 68.334 18.2457 68.3172 18.2518C63.7487 19.8422 62.2568 23.0471 62.2407 23.0821C63.5552 24.1029 65.2039 24.7188 66.9996 24.7188C68.0719 24.7188 69.0933 24.5008 70.0226 24.106C69.9079 23.4305 69.4581 21.0627 68.3685 18.235ZM71.3264 23.3996C73.065 22.228 74.2997 20.3677 74.6442 18.2129C74.4848 18.1616 72.3185 17.4768 69.8193 17.8769C70.8349 20.6639 71.2476 22.9336 71.3264 23.3996ZM68.6656 15.1351C68.8453 15.5038 69.0194 15.8791 69.1801 16.2562C69.2372 16.3915 69.293 16.5241 69.3474 16.6567C72.0073 16.3225 74.6279 16.8848 74.7399 16.9078C74.7222 15.0749 74.0656 13.3927 72.9792 12.0758C72.9646 12.0965 71.7227 13.8883 68.6656 15.1351Z" fill="white"/>
<path opacity="0.1" fill-rule="evenodd" clip-rule="evenodd" d="M100 17C100 7.61116 107.611 0 117 0C126.389 0 134 7.61116 134 17C134 26.3888 126.389 34 117 34C107.611 34 100 26.3888 100 17Z" fill="white"/>
<path fill-rule="evenodd" clip-rule="evenodd" d="M116.491 13.8178L116.527 14.4061L115.932 14.334C113.768 14.0579 111.877 13.1215 110.272 11.5489L109.487 10.7686L109.285 11.3448C108.857 12.6293 109.13 13.9859 110.022 14.8983C110.498 15.4025 110.391 15.4745 109.57 15.1744C109.285 15.0783 109.035 15.0063 109.011 15.0423C108.928 15.1264 109.213 16.2188 109.439 16.651C109.749 17.2512 110.379 17.8395 111.068 18.1876L111.651 18.4637L110.961 18.4757C110.296 18.4757 110.272 18.4877 110.343 18.7398C110.581 19.5201 111.52 20.3485 112.567 20.7086L113.304 20.9607L112.662 21.3449C111.711 21.8971 110.593 22.2092 109.475 22.2332C108.94 22.2452 108.5 22.2933 108.5 22.3293C108.5 22.4493 109.951 23.1216 110.795 23.3857C113.328 24.166 116.336 23.8299 118.596 22.4973C120.201 21.549 121.806 19.6642 122.555 17.8395C122.96 16.8671 123.364 15.0903 123.364 14.238C123.364 13.6858 123.4 13.6137 124.066 12.9535C124.458 12.5693 124.827 12.1491 124.898 12.0291C125.017 11.801 125.005 11.801 124.398 12.0051C123.388 12.3652 123.245 12.3172 123.744 11.777C124.113 11.3928 124.553 10.6966 124.553 10.4925C124.553 10.4565 124.375 10.5165 124.173 10.6245C123.958 10.7446 123.483 10.9247 123.126 11.0327L122.484 11.2368L121.901 10.8406C121.58 10.6245 121.128 10.3844 120.891 10.3124C120.284 10.1443 119.357 10.1683 118.81 10.3604C117.323 10.9006 116.384 12.2932 116.491 13.8178Z" fill="white"/>
<path opacity="0.1" fill-rule="evenodd" clip-rule="evenodd" d="M150 17C150 7.61116 157.611 0 167 0C176.389 0 184 7.61116 184 17C184 26.3888 176.389 34 167 34C157.611 34 150 26.3888 150 17Z" fill="white"/>
<path fill-rule="evenodd" clip-rule="evenodd" d="M174.084 11.1558C174.865 11.3699 175.479 12.0008 175.688 12.8019C176.067 14.2539 176.067 17.2834 176.067 17.2834C176.067 17.2834 176.067 20.3128 175.688 21.7649C175.479 22.566 174.865 23.1968 174.084 23.4111C172.67 23.8001 167 23.8001 167 23.8001C167 23.8001 161.33 23.8001 159.915 23.4111C159.135 23.1968 158.521 22.566 158.312 21.7649C157.933 20.3128 157.933 17.2834 157.933 17.2834C157.933 17.2834 157.933 14.2539 158.312 12.8019C158.521 12.0008 159.135 11.3699 159.915 11.1558C161.33 10.7667 167 10.7667 167 10.7667C167 10.7667 172.67 10.7667 174.084 11.1558ZM165.3 14.7333V20.4L169.833 17.5668L165.3 14.7333Z" fill="white"/>
</g>
<defs>
<clipPath id="clip0_2_347">
<rect width="184" height="34" fill="white"/>
</clipPath>
</defs>
</svg>
